<svg viewBox="0 0 513 513" fill="none" xmlns="http://www.w3.org/2000/svg">
<path fill-rule="evenodd" clip-rule="evenodd" d="M256.752 512.075C398.137 512.075 512.752 397.46 512.752 256.075C512.752 114.69 398.137 0.0749512 256.752 0.0749512C115.367 0.0749512 0.751953 114.69 0.751953 256.075C0.751953 397.46 115.367 512.075 256.752 512.075ZM101.052 314.362C107.319 317.028 114.652 318.362 123.052 318.362C131.452 318.362 138.785 317.028 145.052 314.362C151.319 311.562 156.519 307.762 160.652 302.962C164.785 298.028 167.852 292.295 169.852 285.762C171.852 279.228 172.852 272.162 172.852 264.562C172.852 256.962 171.852 249.828 169.852 243.162C167.852 236.495 164.785 230.762 160.652 225.962C156.519 221.028 151.319 217.162 145.052 214.362C138.785 211.562 131.452 210.162 123.052 210.162C114.652 210.162 107.319 211.562 101.052 214.362C94.9186 217.162 89.7853 221.028 85.652 225.962C81.652 230.762 78.5853 236.495 76.452 243.162C74.452 249.828 73.452 256.962 73.452 264.562C73.452 272.162 74.452 279.228 76.452 285.762C78.5853 292.295 81.652 298.028 85.652 302.962C89.7853 307.762 94.9186 311.562 101.052 314.362ZM139.052 288.562C135.852 294.028 130.519 296.762 123.052 296.762C115.719 296.762 110.385 294.028 107.052 288.562C103.852 282.962 102.252 274.962 102.252 264.562C102.252 254.162 103.852 246.228 107.052 240.762C110.385 235.162 115.719 232.362 123.052 232.362C130.519 232.362 135.852 235.162 139.052 240.762C142.385 246.228 144.052 254.162 144.052 264.562C144.052 274.962 142.385 282.962 139.052 288.562ZM197.668 261.562C201.934 265.695 207.801 268.828 215.268 270.962L227.668 274.562C231.134 275.628 233.801 276.895 235.668 278.362C237.668 279.695 238.668 281.962 238.668 285.162C238.668 287.428 238.001 289.295 236.668 290.762C235.468 292.095 233.934 293.228 232.068 294.162C230.201 294.962 228.134 295.562 225.868 295.962C223.734 296.228 221.734 296.362 219.868 296.362C215.601 296.362 211.468 295.962 207.468 295.162C203.601 294.228 199.468 292.895 195.068 291.162C193.468 294.628 192.134 298.228 191.068 301.962C190.134 305.562 189.534 309.162 189.268 312.762C192.068 313.828 194.668 314.695 197.068 315.362C199.468 316.028 201.868 316.562 204.268 316.962C206.801 317.495 209.401 317.828 212.068 317.962C214.734 318.228 217.668 318.362 220.868 318.362C227.934 318.362 234.268 317.495 239.868 315.762C245.468 313.895 250.201 311.428 254.068 308.362C258.068 305.162 261.068 301.428 263.068 297.162C265.201 292.895 266.268 288.295 266.268 283.362C266.268 278.562 265.668 274.495 264.468 271.162C263.268 267.828 261.601 265.028 259.468 262.762C257.334 260.495 254.734 258.628 251.668 257.162C248.734 255.562 245.401 254.228 241.668 253.162L230.268 249.762C226.934 248.695 224.334 247.562 222.468 246.362C220.734 245.162 219.868 243.095 219.868 240.162C219.868 237.095 221.134 234.895 223.668 233.562C226.201 232.095 229.734 231.362 234.268 231.362C238.534 231.362 242.601 231.895 246.468 232.962C250.334 233.895 253.868 235.028 257.068 236.362C258.534 233.562 259.801 230.295 260.868 226.562C261.934 222.828 262.601 219.228 262.868 215.762C257.668 213.895 252.534 212.495 247.468 211.562C242.401 210.628 237.268 210.162 232.068 210.162C219.534 210.162 209.601 213.028 202.268 218.762C195.068 224.495 191.468 232.428 191.468 242.562C191.468 250.962 193.534 257.295 197.668 261.562ZM299.66 211.362C294.993 211.362 290.26 211.762 285.46 212.562V268.162C285.46 279.228 286.86 288.095 289.66 294.762C292.46 301.428 296.193 306.495 300.86 309.962C305.66 313.428 311.193 315.695 317.46 316.762C323.726 317.828 330.26 318.362 337.06 318.362C344.66 318.362 351.926 317.628 358.86 316.162C365.926 314.828 371.593 313.428 375.86 311.962V212.562C371.06 211.762 366.326 211.362 361.66 211.362C357.126 211.362 352.46 211.762 347.66 212.562V293.562C344.326 294.495 340.193 294.962 335.26 294.962C331.66 294.962 328.526 294.562 325.86 293.762C323.193 292.828 320.926 291.362 319.06 289.362C317.326 287.228 315.993 284.428 315.06 280.962C314.26 277.362 313.86 272.828 313.86 267.362V212.562C309.06 211.762 304.326 211.362 299.66 211.362ZM417.513 170.962C412.446 170.962 407.313 171.362 402.113 172.162L404.113 269.962C408.646 270.762 413.18 271.162 417.713 271.162C421.98 271.162 426.446 270.762 431.113 269.962L433.113 172.162C427.913 171.362 422.713 170.962 417.513 170.962ZM401.713 301.362C401.713 306.162 402.113 311.028 402.913 315.962C407.846 316.762 412.78 317.162 417.713 317.162C422.38 317.162 427.246 316.762 432.313 315.962C433.113 311.028 433.513 306.095 433.513 301.162C433.513 296.495 433.113 291.628 432.313 286.562C427.246 285.762 422.313 285.362 417.513 285.362C412.713 285.362 407.846 285.762 402.913 286.562C402.113 291.628 401.713 296.562 401.713 301.362Z" />
</svg>
